Coordinates
version=1
nRows=8
nColumns=34
inDegrees=yes

Units are S.I. units (second, meters, Newtons, ...)
If the header above contains a line with 'inDegrees', this indicates whether rotational values are in degrees (yes) or radians (no).

endheader
time	pelvis_tilt	pelvis_list	pelvis_rotation	pelvis_tx	pelvis_ty	pelvis_tz	hip_flexion_r	hip_adduction_r	hip_rotation_r	knee_angle_r	ankle_angle_r	subtalar_angle_r	mtp_angle_r	hip_flexion_l	hip_adduction_l	hip_rotation_l	knee_angle_l	ankle_angle_l	subtalar_angle_l	mtp_angle_l	lumbar_extension	lumbar_bending	lumbar_rotation	arm_flex_r	arm_add_r	arm_rot_r	elbow_flex_r	pro_sup_r	arm_flex_l	arm_add_l	arm_rot_l	elbow_flex_l	pro_sup_l
      2.66666670	    -20.37584554	      1.59240775	      4.53439612	      0.40232403	      0.47342839	     -0.08320602	    119.99999986	    -18.38766325	      7.42317893	    127.87591821	     25.36694526	    -35.00000000	      0.00000000	    119.99999986	     -6.83871948	      6.46213282	    125.95851685	     20.76228496	    -11.64011991	      0.00000000	    -48.35606584	      3.55794643	     -6.72276404	    149.99268878	     -3.25627156	     45.45075890	     32.14300670	     57.10883052	    -30.54683193	   -183.59767496	   -137.17809993	     24.01677070	     19.85898157
      2.68333330	    -19.84957198	      1.21120440	      4.58825249	      0.40389390	      0.47213791	     -0.08425270	    119.81545602	    -18.76388373	      7.36047564	    128.52617731	     25.19585759	    -35.00000000	      0.00000000	    119.99999986	     -6.43252223	      7.09488439	    126.34750566	     20.91806472	    -11.29447701	      0.00000000	    -48.77043429	      4.16573830	     -6.84570297	    149.70397066	     -2.76853698	     45.08028846	     32.12291619	     56.98122142	    -30.13699318	   -183.49145617	   -137.16073419	     22.88361265	     19.52030621
      2.70000000	    -19.52946723	      1.01774003	      4.41881776	      0.40808465	      0.47405610	     -0.08733607	    119.61472742	    -19.01021501	      7.43877813	    128.81940250	     24.60941980	    -35.00000000	      0.00000000	    119.99999986	     -6.40786565	      7.30047768	    126.63576519	     20.83842491	    -11.19463508	      0.00000000	    -48.91121090	      4.37086016	     -6.76879544	    149.20678346	     -2.67020149	     44.99196778	     32.08837920	     56.94287644	    -30.26585577	   -183.40944121	   -137.07891484	     22.63584443	     19.43701137
      2.71666670	    -19.53895609	      0.67044066	      4.12967914	      0.42028048	      0.47833240	     -0.09324684	    119.26779872	    -19.52101833	      7.40161244	    129.11850663	     24.44732912	    -35.00000000	      0.00000000	    119.99999986	     -6.48575924	      7.61402293	    127.02585656	     21.21313509	    -11.44511560	      0.00000000	    -48.39791357	      4.57288855	     -6.39387887	    147.81437135	     -2.98433849	     44.21652897	     33.11980317	     56.76766070	    -31.33768323	   -183.53697793	   -136.87313274	     22.80564749	     19.02025943
      2.73333330	    -20.08292685	      0.41667979	      3.87988811	      0.42720716	      0.48400197	     -0.09817183	    119.12371103	    -20.16415029	      7.42570838	    128.85588620	     23.66796747	    -35.00000000	      0.00000000	    119.99999986	     -6.59915358	      7.33556386	    126.86200170	     21.90397068	    -11.70357462	      0.00000000	    -47.39691290	      4.79162403	     -5.99086807	    146.93678770	     -3.20250267	     44.03785884	     33.08028110	     56.71982101	    -32.39909301	   -183.78286082	   -136.88592216	     22.99142678	     18.89125997
      2.75000000	    -20.57441917	      0.24765975	      3.67171248	      0.41660693	      0.47972976	     -0.08809291	    119.22660236	    -20.57144497	      6.91808470	    128.40047198	     23.30921354	    -35.00000000	      0.00000000	    119.99999986	     -6.94793693	      7.29535136	    126.35782381	     22.27638193	    -11.76502032	      0.00000000	    -46.79311651	      4.75513910	     -6.50554849	    146.13209769	     -2.87420752	     42.61441525	     34.30870303	     56.51909183	    -32.99953785	   -181.82827627	   -136.39409647	     26.74189774	     19.02426133
      2.76666670	    -21.48916547	      0.10646673	      3.68127067	      0.43397157	      0.49927683	     -0.09801738	    119.23899666	    -21.32531439	      6.66362998	    127.71011096	     22.91811191	    -35.00000000	      0.00000000	    119.99999986	     -7.15916762	      6.79765509	    125.74189436	     21.64020684	    -12.78692934	      0.00000000	    -45.47894921	      4.82586997	     -6.38963009	    144.20330402	     -3.60456329	     41.48624579	     35.78426766	     56.82531746	    -35.49151678	   -181.76497805	   -138.42997950	     28.69943171	     19.06297379
      2.78333330	    -22.66953974	      0.27251154	      3.31385586	      0.42565090	      0.50271155	     -0.09870734	    119.51501869	    -21.59795953	      6.15816980	    126.26040811	     22.11585881	    -35.00000000	      0.00000000	    119.99999986	     -7.58553432	      6.00309355	    124.60020261	     21.29364148	    -13.92962114	      0.00000000	    -44.09985366	      4.60533519	     -6.64314101	    143.45347625	     -3.77720229	     41.49761349	     36.94845107	     57.04460475	    -36.00667780	   -180.86167192	   -138.08684725	     30.62269326	     19.49149159
